# xmcd
#
# Track frame offsets:
#	150
#	12784
#	35017
#	51437
#	70345
#	87202
#	102727
#	117472
#	135535
#	157885
#	178317
#	197275
#	215112
#	231625
#	251275
#	265055
#	296007
#
# Disc length: 3960 seconds
#
# Revision: 1
# Processed by: cddbd v1.5.1PL2 Copyright (c) Steve Scherf et al.
# Submitted via: audiograbber 1.83.01
#
DISCID=010f7611
DTITLE=Various Artist - Mh1114
DYEAR=1900
DGENRE=Country
TTITLE0=Keith, Toby - I'm Just Talkin' About Tonight
TTITLE1=Brooks, Garth - Wrapped Up In You
TTITLE2=Tritt, Travis - Love Of A Woman
TTITLE3=Strait, George - Run
TTITLE4=Adkins, Trace - I'm Tryin'
TTITLE5=Paisley, Brad - Wrapped Around
TTITLE6=Urban, Keith - Where The Blacktop Ends
TTITLE7=Tippin, Aaron - Where The Stars And Stirpes And The Eagle Fly
TTITLE8=Jackson, Alan - Where Were You (When The World Stopped Turning)
TTITLE9=McGraw, Tim - Angry All The Time
TTITLE10=Lone Star - I'm Already There
TTITLE11=Brooks and Dunn - Only In America
TTITLE12=Shelton, Blake - Austin
TTITLE13=Jackson, Alan - Where I Come From
TTITLE14=Keith, Toby - I Wanna Talk About Me
TTITLE15=Ball, David - Riding With Private Malone
TTITLE16=Artist - Data Track
EXTD=
EXTT0=
EXTT1=
EXTT2=
EXTT3=
EXTT4=
EXTT5=
EXTT6=
EXTT7=
EXTT8=
EXTT9=
EXTT10=
EXTT11=
EXTT12=
EXTT13=
EXTT14=
EXTT15=
EXTT16=
PLAYORDER=
